<svg width="53" height="12" viewBox="0 0 53 12" fill="none" xmlns="http://www.w3.org/2000/svg">
<g clip-path="url(#clip0_1_768)">
<path d="M19.314 6.47702L19.0036 7.34193H18.9778C18.9261 7.1469 18.8312 6.85012 18.676 6.49398L17.012 2.3814H15.3824V8.93609H16.4602V4.89134C16.4602 4.63696 16.4602 4.34865 16.4516 3.99251C16.4429 3.81444 16.4257 3.67877 16.4171 3.57701H16.4429C16.4947 3.8314 16.555 4.01795 16.5981 4.13666L18.5984 8.91913H19.3571L21.3402 4.09426C21.3833 3.98403 21.4264 3.76356 21.4695 3.57701H21.4954C21.4695 4.06035 21.4523 4.4928 21.4436 4.75567V8.91065H22.5904V2.36444H21.0212L19.314 6.47702ZM23.6767 4.21298H24.7976V8.91065H23.6767V4.21298ZM24.2458 2.22876C24.0561 2.22876 23.9009 2.2966 23.7716 2.41531C23.6422 2.53403 23.5733 2.68666 23.5733 2.87321C23.5733 3.05128 23.6422 3.20391 23.7716 3.32263C23.9009 3.44134 24.0561 3.5007 24.2458 3.5007C24.4355 3.5007 24.5993 3.43286 24.72 3.32263C24.8493 3.20391 24.9183 3.05128 24.9183 2.87321C24.9183 2.69514 24.8493 2.54251 24.72 2.41531C24.6079 2.2966 24.4441 2.22876 24.2458 2.22876ZM28.7723 4.17058C28.5653 4.12818 28.3498 4.10274 28.1429 4.10274C27.6342 4.10274 27.1686 4.21298 26.7806 4.43345C26.3926 4.65391 26.0822 4.95918 25.8839 5.34076C25.677 5.73082 25.5735 6.18023 25.5735 6.69749C25.5735 7.1469 25.677 7.54544 25.8753 7.91006C26.0736 8.2662 26.3495 8.55451 26.7203 8.74954C27.0738 8.94456 27.4876 9.04632 27.9532 9.04632C28.4877 9.04632 28.9447 8.93609 29.3068 8.73258L29.3155 8.7241V7.70655L29.2723 7.74047C29.1085 7.85918 28.9188 7.96094 28.7292 8.02029C28.5309 8.08813 28.3498 8.12205 28.1946 8.12205C27.7463 8.12205 27.3928 7.99486 27.1427 7.71503C26.8841 7.44369 26.7547 7.07059 26.7547 6.60421C26.7547 6.12088 26.8841 5.7393 27.1514 5.45947C27.4186 5.17965 27.7721 5.03549 28.2032 5.03549C28.5653 5.03549 28.9361 5.15421 29.2723 5.39164L29.3155 5.42555V4.34865L29.3068 4.34017C29.1603 4.28081 28.9964 4.21298 28.7723 4.17058ZM32.4711 4.13666C32.1952 4.13666 31.9365 4.22146 31.7123 4.39953C31.5227 4.55216 31.3933 4.77263 31.2812 5.03549H31.2726V4.21298H30.1518V8.91065H31.2726V6.51094C31.2726 6.10392 31.3588 5.76474 31.5485 5.51883C31.7382 5.26444 31.9796 5.13725 32.2728 5.13725C32.3762 5.13725 32.4797 5.16269 32.609 5.17965C32.7297 5.21356 32.8159 5.24748 32.8763 5.28988L32.9194 5.3238V4.22146L32.8935 4.21298C32.8159 4.1621 32.6608 4.13666 32.4711 4.13666ZM35.5232 4.11122C34.7386 4.11122 34.1092 4.34017 33.6695 4.78959C33.2212 5.239 33.0056 5.85801 33.0056 6.63813C33.0056 7.36737 33.2298 7.96094 33.6609 8.39339C34.092 8.81737 34.6783 9.03784 35.4111 9.03784C36.1785 9.03784 36.7906 8.80889 37.2304 8.351C37.6787 7.8931 37.8943 7.28257 37.8943 6.52789C37.8943 5.78169 37.6873 5.18813 37.2649 4.75567C36.8596 4.32321 36.2647 4.11122 35.5232 4.11122ZM36.4199 7.72351C36.213 7.98638 35.8853 8.11357 35.4801 8.11357C35.0749 8.11357 34.7473 7.98638 34.5145 7.70655C34.2817 7.44369 34.1696 7.06211 34.1696 6.57877C34.1696 6.07848 34.2903 5.6969 34.5145 5.42555C34.7473 5.15421 35.0663 5.01854 35.4715 5.01854C35.8681 5.01854 36.1785 5.14573 36.4027 5.40859C36.6268 5.67146 36.7475 6.05304 36.7475 6.55333C36.7303 7.06211 36.6355 7.46064 36.4199 7.72351ZM40.3946 6.16327C40.0411 6.01912 39.8169 5.90889 39.7135 5.81561C39.6273 5.73082 39.5841 5.6121 39.5841 5.45947C39.5841 5.33228 39.6359 5.20509 39.7652 5.12029C39.8945 5.03549 40.0411 4.9931 40.2567 4.9931C40.4463 4.9931 40.6446 5.02701 40.8343 5.07789C41.024 5.12877 41.1964 5.20509 41.3344 5.30684L41.3775 5.34076V4.30625L41.3516 4.29777C41.2223 4.2469 41.0499 4.19602 40.8429 4.15362C40.636 4.1197 40.4463 4.10274 40.2911 4.10274C39.7566 4.10274 39.3169 4.22994 38.972 4.50976C38.6271 4.77263 38.4633 5.12877 38.4633 5.54427C38.4633 5.76473 38.4978 5.95976 38.5754 6.12088C38.653 6.28199 38.7651 6.43462 38.9203 6.56181C39.0755 6.68053 39.2996 6.8162 39.61 6.94339C39.8687 7.05363 40.067 7.13842 40.1877 7.20626C40.3084 7.27409 40.386 7.35041 40.4463 7.40977C40.4894 7.4776 40.5153 7.5624 40.5153 7.67263C40.5153 7.98638 40.2739 8.13901 39.7824 8.13901C39.5928 8.13901 39.3945 8.10509 39.1617 8.02877C38.9289 7.95246 38.7133 7.84222 38.5323 7.71503L38.4892 7.68111V8.75801L38.515 8.76649C38.6788 8.84281 38.8771 8.89369 39.1186 8.95304C39.36 8.99544 39.5755 9.02936 39.7652 9.02936C40.3429 9.02936 40.8171 8.90217 41.1533 8.62234C41.4982 8.351 41.6793 8.00334 41.6793 7.55392C41.6793 7.24018 41.5931 6.96035 41.4034 6.74836C41.1533 6.54485 40.8429 6.33286 40.3946 6.16327ZM44.6366 4.11122C43.852 4.11122 43.2226 4.34017 42.7829 4.78959C42.3432 5.239 42.119 5.85801 42.119 6.63813C42.119 7.36737 42.3432 7.96094 42.7743 8.39339C43.2053 8.81737 43.7916 9.03784 44.5245 9.03784C45.2919 9.03784 45.904 8.80889 46.3437 8.351C46.7921 7.8931 47.0076 7.28257 47.0076 6.52789C47.0076 5.78169 46.8007 5.18813 46.3782 4.75567C45.973 4.32321 45.3781 4.11122 44.6366 4.11122ZM45.5246 7.72351C45.3177 7.98638 44.9901 8.11357 44.5849 8.11357C44.171 8.11357 43.852 7.98638 43.6192 7.70655C43.3864 7.44369 43.2743 7.06211 43.2743 6.57877C43.2743 6.07848 43.395 5.6969 43.6192 5.42555C43.852 5.15421 44.171 5.01854 44.5762 5.01854C44.9642 5.01854 45.2832 5.14573 45.5074 5.40859C45.7316 5.67146 45.8523 6.05304 45.8523 6.55333C45.8523 7.06211 45.7402 7.46064 45.5246 7.72351ZM52.9998 5.12029V4.21298H51.8704V2.82233L51.8359 2.83081L50.7668 3.14456L50.7409 3.15304V4.21298H49.051V3.61941C49.051 3.34806 49.12 3.13608 49.2407 3.0004C49.3614 2.86473 49.5425 2.79689 49.7666 2.79689C49.9218 2.79689 50.0856 2.83081 50.2667 2.90713L50.3098 2.93257V1.97438L50.2839 1.9659C50.1287 1.91502 49.9218 1.8811 49.6545 1.8811C49.3183 1.8811 49.0251 1.95742 48.7579 2.08461C48.4906 2.22876 48.2923 2.42379 48.1457 2.68666C47.9991 2.94105 47.9215 3.22935 47.9215 3.56005V4.21298H47.1369V5.11181H47.9215V8.91065H49.051V5.12029H50.7409V7.53696C50.7409 8.52907 51.2151 9.02936 52.1635 9.02936C52.3187 9.02936 52.4825 9.00392 52.6377 8.97848C52.8015 8.94457 52.9222 8.90217 52.9912 8.86825L52.9998 8.85977V7.95246L52.9567 7.98638C52.8878 8.02877 52.8274 8.06269 52.7239 8.08813C52.6377 8.11357 52.5601 8.12205 52.4998 8.12205C52.2756 8.12205 52.1204 8.07117 52.0083 7.94398C51.9049 7.82526 51.8531 7.63024 51.8531 7.34193V5.12029H52.9998Z" fill="#737373"/>
<path d="M0.753418 0.0898132H6.12733V5.46373H0.753418V0.0898132Z" fill="#F25022"/>
<path d="M6.72449 0.0898132H12.0984V5.46373H6.72449V0.0898132Z" fill="#7FBA00"/>
<path d="M0.753418 5.76227H6.12733V11.1362H0.753418V5.76227Z" fill="#00A4EF"/>
<path d="M6.72449 5.76227H12.0984V11.1362H6.72449V5.76227Z" fill="#FFB900"/>
</g>
<defs>
<clipPath id="clip0_1_768">
<rect width="52.2464" height="11.0464" fill="white" transform="translate(0.753418 0.0898132)"/>
</clipPath>
</defs>
</svg>
